<?xml version="1.0" encoding="utf-8"?>
<svg version="1.1" xmlns:xlink="http://www.w3.org/1999/xlink" width="124px" height="124px" xmlns="http://www.w3.org/2000/svg">
  <g transform="matrix(1 0 0 1 -73 -115 )">
    <path d="M 66.56616015625 68.39866992187497  L 66.573830078125 68  L 77.56933984375002 68  C 80.48000000000002 68.398669921875  81.93517968750001 69.86166992187499  81.93517968750001 72.80316015625002  C 81.93517968750001 75.68283984375002  80.47233007812501 77.122830078125  77.56933984375002 77  L 66.573830078125 77  L 66.573830078125 86.239509765625  C 66.573830078125 88.28016015624999  66.28883984375 89.643  65.71133984375 90.32066015625001  C 65.14166015625 91.00583984375002  63.894169921875005 91.3448203125  61.96916992187501 91.3448203125  C 60.306 91.3448203125  59.1125 91.00583984375  58.381 90.32817968750001  C 57.65716992187501 89.643  57.295179687499996 88.28016015624999  57.295179687499996 86.23966015625  L 57.295179687499996 77  L 46.446000000000005 77  C 43.53533984375001 77.122830078125  42.08016015625001 75.68283984375  42.08016015625001 72.80316015625002  C 42.08016015625001 69.86933984375  43.481500000000004 68.398669921875  46.292 68  L 57.28766015625001 68  L 57.28766015625001 64  L 46.446000000000005 64  C 43.53533984375001 64.394669921875  42.08016015625001 62.947160156250014  42.08016015625001 60.067330078124996  C 42.08016015625001 57.141330078124994  43.481500000000004 55.670660156249994  46.292 55.670660156249994  L 52.45200000000001 55.670660156249994  C 49.28318186046647 50.45554721076053  46.110791143639624 45.2426058858962  42.934830078124996 40.03183984375  C 42.103169921875 38.669  41.80283984375 37.46016015625  42.041509765625 36.41283984374999  C 42.31344833632893 35.31101097835904  42.99672940969371 34.35502014914196  43.95116992187499 33.74099999999999  C 45.14466992187499 32.90182031249999  46.253499999999995 32.56283984374999  47.262169921875 32.716839843749995  C 48.27866015625 32.87083984374999  49.2565 33.74099999999999  50.188169921875 35.31183007812499  L 62.046169921875 55.27783984374999  C 63.95664444877699 51.98296624300464  65.87910053237405 48.695054507238865  67.8135 45.414169921874986  L 73.58850000000001 35.55049999999999  C 74.158330078125 34.60333984374999  74.68966015625 33.91033984374999  75.18233984375 33.4715  C 75.59790700920539 33.062181648536665  76.12605961200487 32.786036429228204  76.699330078125 32.67833984374999  C 77.22283984375 32.60133984374999  77.738830078125 32.67833984374999  78.26233984375 32.90933984374999  C 78.82744673180109 33.17777960426699  79.3752334397733 33.481257257812565  79.90249999999999 33.817999999999984  C 81.19616015624999 34.664999999999985  81.9045 35.53516015624999  82.00466015624998 36.451339843749984  C 82.11233984375 37.375339843749984  81.742830078125 38.56132031249998  80.9113203125 40.03183984374998  L 71.555669921875 55.66283984374998  L 77.56166992187501 55.66283984374998  C 80.47233007812501 55.66283984374998  81.927509765625 57.133660156249974  81.927509765625 60.06733007812497  C 81.927509765625 62.94716015624997  80.46466015625 64.38699999999997  77.56166992187501 64  L 66.56616015625 64  L 66.56616015625 68.39866992187497  Z M 5.1201601562499945 55.23933984375  L 5.097000000000001 55.239490234375  C 2.5069488301327993 55.23380688960955  0.4103065940964612 53.13255894756857  0.4103065940964612 50.54250154223212  C 0.4103065940964612 49.924087700020706  0.5324271022664533 49.31176098652108  0.7696601562500032 48.74066015625  C 3.9139006687738203 35.123071081722934  11.555342862372466 22.96235398613465  22.460500000000003 14.221499999999999  C 33.66583136843939 5.271009427258562  47.58177537386002 0.397034892677091  61.92299999999999 0.40000000000000036  C 82.76929892748734 0.4247214877658383  102.26192564178086 10.729896251662684  114.0213203125 27.942839843750008  L 114.0213203125 25.01683984375  C 114.03408249445494 22.425811230909602  116.1426140343346 20.33450647580713  118.73366015624998 20.343000000000004  C 121.32171559179886 20.33874240865068  123.42557227523284 22.428812351039852  123 25.01683984375  L 123 50.5655  C 123.42557227523284 53.15352749271017  121.32171559179886 55.24359743509933  118.73366015624998 55.23933984375  C 116.19551578457765 55.244930155563836  114.11205173747277 53.233125976592305  114.02883984374998 50.696339843749996  C 108.56183984375 26.864839843750005  86.6785 9.578339843750001  61.923 9.578339843750001  C 37.175169921875 9.578339843750001  15.276339843749998 26.864839843750005  9.817160156249997 50.69633984375001  C 9.734042094087211 53.23008896279711  7.655271860473846 55.240702795308394  5.1201601562499945 55.23933984375  Z M 114.17532031249999 73.30366015625  C 114.25861595754074 70.76394801191425  116.34660082214506 68.75099573036805  118.88766015625 68.76066015625001  C 121.47644338276857 68.76812475942562  123.57111669111782 70.86884664203376  123.57111669111782 73.45764063040065  C 123.57111669111782 74.07320840347538  123.4501174400221 74.68277320660442  123.215 75.251669921875  C 120.07178486599273 88.87181075239239  112.4303114134094 101.03527963346801  101.52416015625 109.77850000000001  C 90.32263427369557 118.72515507965213  76.41285776719641 123.59886399109371  62.07699999999999 123.6  C 41.23103269431559 123.57394517193339  21.738989454765168 113.26907887386244  9.97867968749999 96.05716015625  L 9.97867968749999 98.98316015625001  C 9.965917505545043 101.57418876909044  7.857385965665368 103.66549352419288  5.266339843749989 103.65700000000001  C 2.678284408201101 103.66125759134934  0.5744277247671512 101.57118764896018  1 98.98316015625001  L 1 73.4345  C 0.5744277247671512 70.84647250728986  2.6782844082011046 68.75640256490068  5.266339843749989 68.76066015625001  C 7.804484215422292 68.75506984443618  9.887948262527196 70.7668740234077  9.971160156249987 73.30366015625  C 15.43033984374999 97.13516015625  37.32149999999998 114.42166015625  62.07699999999999 114.42166015625  C 86.82483007812499 114.42166015625  108.72366015625 97.13516015625001  114.17532031249999 73.30366015625  Z " fill-rule="nonzero" fill="#1abc9c" stroke="none" transform="matrix(1 0 0 1 73 115 )" />
  </g>
</svg>