<?xml version="1.0" encoding="utf-8"?>
<svg version="1.1" xmlns:xlink="http://www.w3.org/1999/xlink" width="12px" height="12px" xmlns="http://www.w3.org/2000/svg">
  <g transform="matrix(1 0 0 1 -567 -299 )">
    <path d="M 573 299  C 576.36 299  579 301.64  579 305  C 579 308.36  576.36 311  573 311  C 569.64 311  567 308.36  567 305  C 567 301.64  569.64 299  573 299  Z " fill-rule="nonzero" fill="#ffffff" stroke="none" />
    <path d="M 573 299.5  C 576.08 299.5  578.5 301.92  578.5 305  C 578.5 308.08  576.08 310.5  573 310.5  C 569.92 310.5  567.5 308.08  567.5 305  C 567.5 301.92  569.92 299.5  573 299.5  Z " stroke-width="1" stroke="#f2f2f2" fill="none" />
  </g>
</svg>