<?xml version="1.0" encoding="utf-8"?>
<svg version="1.1" xmlns:xlink="http://www.w3.org/1999/xlink" width="36px" height="36px" xmlns="http://www.w3.org/2000/svg">
  <g transform="matrix(1 0 0 1 -372 -240 )">
    <path d="M 4.826289062499997 17.975742187500003  C 4.826289062499997 10.751757812500003  10.704804687499998 4.874765625000004  17.927265625 4.874765625  C 25.1511328125 4.874765625  31.0282421875 10.751835937500001  31.0282421875 17.9757421875  C 31.0282421875 25.199648437500002  25.1511328125 31.076796875  17.927265624999997 31.076796875  C 10.704765624999999 31.076796875  4.826289062499997 25.199726562500004  4.826289062499997 17.975742187500003  Z M 35.395234375 17.975703125  C 35.395234375 8.3280078125  27.573476562500005 0.5076953125000001  17.927265625 0.5076953125000001  C 8.281054687499998 0.5076953125000001  0.45925781249999975 8.3279296875  0.45925781249999975 17.975703125  C 0.45925781249999975 27.62046875  8.281015624999998 35.4437109375  17.927265625 35.4437109375  C 27.573476562500005 35.4437109375  35.395234375 27.620390625  35.395234375 17.975703125  Z " fill-rule="nonzero" fill="#1abc9c" stroke="none" transform="matrix(1 0 0 1 372 240 )" />
  </g>
</svg>