<?xml version="1.0" encoding="utf-8"?>
<svg version="1.1" xmlns:xlink="http://www.w3.org/1999/xlink" width="10px" height="18px" xmlns="http://www.w3.org/2000/svg">
  <g transform="matrix(1 0 0 1 -387 -247 )">
    <path d="M 7.294140624999997 17.526171875000003  C 6.734960937499995 17.526171875000003  6.175664062499997 17.312578125  5.75 16.8854296875  L 1.385976562499998 12.521328125  C 0.9899218750000003 12.126757812500003  0.7451953124999982 11.583867187500001  0.7436718750000004 10.981562500000003  L 0.7436718750000004 2.2416796875000014  C 0.7436718750000004 1.0342187500000009  1.7197265625 0.05816406250000128  2.9271875000000023 0.05816406250000128  C 4.134648437500001 0.05816406250000128  5.110585937500002 1.0342187500000009  5.110585937500002 2.2416796875000014  L 5.110585937500002 10.070859375000001  L 8.838320312500002 13.797031250000003  C 9.689687499999998 14.651484375000003  9.689687499999998 16.033945312500002  8.838320312500002 16.8854296875  C 8.412578125 17.3125390625  7.853437500000002 17.526132812500002  7.2941015625 17.526132812500002  Z " fill-rule="nonzero" fill="#1abc9c" stroke="none" transform="matrix(1 0 0 1 387 247 )" />
  </g>
</svg>