<?xml version="1.0" encoding="utf-8"?>
<svg version="1.1" xmlns:xlink="http://www.w3.org/1999/xlink" width="32px" height="40px" xmlns="http://www.w3.org/2000/svg">
  <g transform="matrix(1 0 0 1 -360 -371 )">
    <path d="M 32 34.7451227734375  C 31.944049921875 37.606183007812504  29.742742421875 39.930047421875  27.037336679687503 40  L 4.9624634375 40  C 2.2552189453124996 39.930047421875  0.055910078125000595 37.6061830078125  0 34.7451228125  L 0 19.202021015625  C 0.055910078125000595 16.344798203125  2.255258906250001 14.02097375  4.9624634375 14.02097375  L 6.235400390624999 14.02097375  C 6.105008789062499 13.3748118359375  6.034896328125001 12.709223124999998  6.034896328125001 12.027964999999998  L 6.034896328125001 10.034956249999997  C 6.034896328125001 4.530848046874998  10.495831796875 0.06995253906249776  16.0000199609375 0.06995253906249776  C 21.50212953125 0.06995253906249776  25.965023671875 4.530848046874998  25.965023671875 10.034956249999997  L 25.965023671875 12.027964999999998  C 25.965023671875 12.709183125  25.89487125 13.3748118359375  25.764519609374997 14.02097375  L 27.037336640624996 14.02097375  C 29.742742382812494 14.02097375  31.944049882812493 16.344798203125  32 19.202021015625  L 32 34.7451227734375  Z M 11.973070234374998 23.9860174609375  C 11.9730702734375 25.465174609374998  12.7983107421875 26.7419489453125  14.0069312890625 27.427044453125  L 14.0069312890625 31.958052421875  C 14.0069312890625 33.055708203125  14.900325585937502 33.951021171875  16.0000199609375 33.951021171875  C 17.099594453124997 33.951021171875  17.992988710937496 33.05570820312499  17.992988710937496 31.958052421875  L 17.992988750000002 27.427044453125  C 19.201529375 26.7419489453125  20.024811171875 25.465174609374998  20.024811171875 23.9860174609375  C 20.024811171875 21.78279125  18.222553085937502 20  16.0000199609375 20  C 13.775328320312497 20  11.973070234374998 21.78279125  11.973070234374998 23.9860174609375  Z M 21.979006249999998 14  L 21.979006249999998 10.0349562890625  C 21.979006249999998 6.732115624999999  19.3028606640625 4.055930078125  16.00002 4.055930078125  C 12.697099375 4.055930078125  10.020913828125 6.7320756640625  10.020913828125 10.0349562890625  L 10.020913828125 14  L 21.979006249999998 14  Z " fill-rule="nonzero" fill="#1abc9c" stroke="none" transform="matrix(1 0 0 1 360 371 )" />
  </g>
</svg>