<?xml version="1.0" encoding="utf-8"?>
<svg version="1.1" xmlns:xlink="http://www.w3.org/1999/xlink" width="25px" height="40px" xmlns="http://www.w3.org/2000/svg">
  <g transform="matrix(1 0 0 1 -363 -508 )">
    <path d="M 24 2.7975012851562497  C 24.00235041796875 1.7462400546875  23.15003428710937 0.8939239238281249  22.098773015625 1  L 2.1110846601562514 1  C 1.0598234296875013 0.8939239238281249  0.20750729882812813 1.7462820136718746  0.20750729882812813 2.7975012851562497  L 0.20750729882812813 37.20249871484375  C 0.20750729882812813 38.253759945312495  1.0598653886718772 39.106076076171874  2.1110846601562514 39  L 22.098773015625 39  C 23.150034246093753 39.106076076171874  24.002350376953125 38.25371798632812  24 37.20249871484375  L 24 2.7975012851562497  Z M 14.249254998046876 34.981952234375  C 14.249254998046876 36.166095394531254  13.289071998046875 37.12627839453125  12.104928837890625 37.12627839453125  C 10.92074371875 37.12627839453125  9.960602677734375 36.16613735351563  9.960602677734375 34.981952234375  C 9.960602677734375 33.79776711523437  10.92074371875 32.837626074218754  12.104928837890625 32.837626074218754  C 13.289113957031251 32.837626074218754  14.249254998046876 33.79776711523437  14.249254998046876 34.981952234375  Z M 22 5  L 22 30  L 2.1110846601562514 30  L 2.1110847011718743 5  L 22 5  Z " fill-rule="nonzero" fill="#1abc9c" stroke="none" transform="matrix(1 0 0 1 363 508 )" />
  </g>
</svg>