<?xml version="1.0" encoding="utf-8"?>
<svg version="1.1" xmlns:xlink="http://www.w3.org/1999/xlink" width="200px" height="60px" xmlns="http://www.w3.org/2000/svg">
  <g transform="matrix(1 0 0 1 -1050 -1152 )">
    <path d="M 1050.5 1197.8584905660377  C 1050.5 1197.8584905660377  1050.5 1152.5  1050.5 1152.5  C 1050.5 1152.5  1249.5 1152.5  1249.5 1152.5  C 1249.5 1152.5  1249.5 1197.8584905660377  1249.5 1197.8584905660377  C 1249.5 1197.8584905660377  1166.3269907293486 1197.8584905660377  1166.3269907293486 1197.8584905660377  C 1166.3269907293486 1197.8584905660377  1150.0151529862544 1210.6822623766463  1150.0151529862544 1210.6822623766463  C 1150.0151529862544 1210.6822623766463  1135.1862095834417 1197.8584905660377  1135.1862095834417 1197.8584905660377  C 1135.1862095834417 1197.8584905660377  1050.5 1197.8584905660377  1050.5 1197.8584905660377  Z " fill-rule="nonzero" fill="#f04844" stroke="none" />
    <path d="M 1050 1198.3584905660377  C 1050 1198.3584905660377  1050 1152  1050 1152  C 1050 1152  1250 1152  1250 1152  C 1250 1152  1250 1198.3584905660377  1250 1198.3584905660377  C 1250 1198.3584905660377  1166.5 1198.3584905660377  1166.5 1198.3584905660377  C 1166.5 1198.3584905660377  1150 1211.3301886792453  1150 1211.3301886792453  C 1150 1211.3301886792453  1135 1198.3584905660377  1135 1198.3584905660377  C 1135 1198.3584905660377  1050 1198.3584905660377  1050 1198.3584905660377  Z M 1051 1197.3584905660377  C 1051 1197.3584905660377  1135.3724191668834 1197.3584905660377  1135.3724191668834 1197.3584905660377  C 1135.3724191668834 1197.3584905660377  1150.030305972509 1210.0343360740471  1150.030305972509 1210.0343360740471  C 1150.030305972509 1210.0343360740471  1166.153981458697 1197.3584905660377  1166.153981458697 1197.3584905660377  C 1166.153981458697 1197.3584905660377  1249 1197.3584905660377  1249 1197.3584905660377  C 1249 1197.3584905660377  1249 1153  1249 1153  C 1249 1153  1051 1153  1051 1153  C 1051 1153  1051 1197.3584905660377  1051 1197.3584905660377  Z " fill-rule="nonzero" fill="#f04844" stroke="none" />
  </g>
</svg>