<?xml version="1.0" encoding="utf-8"?>
<svg version="1.1" xmlns:xlink="http://www.w3.org/1999/xlink" width="140px" height="20px" xmlns="http://www.w3.org/2000/svg">
  <g transform="matrix(1 0 0 1 -226 -113 )">
    <path d="M 227 123  A 9 9 0 0 1 236 114 L 356 114  A 9 9 0 0 1 365 123 A 9 9 0 0 1 356 132 L 236 132  A 9 9 0 0 1 227 123 Z " fill-rule="nonzero" fill="#ffffff" stroke="none" />
    <path d="M 226.5 123  A 9.5 9.5 0 0 1 236 113.5 L 356 113.5  A 9.5 9.5 0 0 1 365.5 123 A 9.5 9.5 0 0 1 356 132.5 L 236 132.5  A 9.5 9.5 0 0 1 226.5 123 Z " stroke-width="1" stroke="#f04844" fill="none" stroke-opacity="0.4980392156862745" />
  </g>
</svg>