<?xml version="1.0" encoding="utf-8"?>
<svg version="1.1" xmlns:xlink="http://www.w3.org/1999/xlink" width="145px" height="20px" xmlns="http://www.w3.org/2000/svg">
  <g transform="matrix(1 0 0 1 -222 -115 )">
    <path d="M 223 125  A 9 9 0 0 1 232 116 L 357 116  A 9 9 0 0 1 366 125 A 9 9 0 0 1 357 134 L 232 134  A 9 9 0 0 1 223 125 Z " fill-rule="nonzero" fill="#ffffff" stroke="none" />
    <path d="M 222.5 125  A 9.5 9.5 0 0 1 232 115.5 L 357 115.5  A 9.5 9.5 0 0 1 366.5 125 A 9.5 9.5 0 0 1 357 134.5 L 232 134.5  A 9.5 9.5 0 0 1 222.5 125 Z " stroke-width="1" stroke="#f04844" fill="none" stroke-opacity="0.4980392156862745" />
  </g>
</svg>