<?xml version="1.0" encoding="utf-8"?>
<svg version="1.1" xmlns:xlink="http://www.w3.org/1999/xlink" width="145px" height="20px" xmlns="http://www.w3.org/2000/svg">
  <g transform="matrix(1 0 0 1 -221 -115 )">
    <path d="M 222 125  A 9 9 0 0 1 231 116 L 356 116  A 9 9 0 0 1 365 125 A 9 9 0 0 1 356 134 L 231 134  A 9 9 0 0 1 222 125 Z " fill-rule="nonzero" fill="#f4d2d2" stroke="none" />
    <path d="M 221.5 125  A 9.5 9.5 0 0 1 231 115.5 L 356 115.5  A 9.5 9.5 0 0 1 365.5 125 A 9.5 9.5 0 0 1 356 134.5 L 231 134.5  A 9.5 9.5 0 0 1 221.5 125 Z " stroke-width="1" stroke="#f04844" fill="none" stroke-opacity="0.4980392156862745" />
  </g>
</svg>