<?xml version="1.0" encoding="utf-8"?>
<svg version="1.1" xmlns:xlink="http://www.w3.org/1999/xlink" width="150px" height="30px" xmlns="http://www.w3.org/2000/svg">
  <g transform="matrix(1 0 0 1 -1066 -356 )">
    <path d="M 1066.5 371  A 14.5 14.5 0 0 1 1081 356.5 L 1201 356.5  A 14.5 14.5 0 0 1 1215.5 371 A 14.5 14.5 0 0 1 1201 385.5 L 1081 385.5  A 14.5 14.5 0 0 1 1066.5 371 Z " fill-rule="nonzero" fill="#ffffff" stroke="none" fill-opacity="0" />
    <path d="M 1066.5 371  A 14.5 14.5 0 0 1 1081 356.5 L 1201 356.5  A 14.5 14.5 0 0 1 1215.5 371 A 14.5 14.5 0 0 1 1201 385.5 L 1081 385.5  A 14.5 14.5 0 0 1 1066.5 371 Z " stroke-width="1" stroke="#ffffff" fill="none" />
  </g>
</svg>