<?xml version="1.0" encoding="utf-8"?>
<svg version="1.1" xmlns:xlink="http://www.w3.org/1999/xlink" width="276px" height="125px" xmlns="http://www.w3.org/2000/svg">
  <defs>
    <filter x="-5px" y="-5px" width="276px" height="125px" filterUnits="userSpaceOnUse" id="filter36">
      <feOffset dx="0" dy="0" in="SourceAlpha" result="shadowOffsetInner" />
      <feGaussianBlur stdDeviation="2.5" in="shadowOffsetInner" result="shadowGaussian" />
      <feComposite in2="shadowGaussian" operator="atop" in="SourceAlpha" result="shadowComposite" />
      <feColorMatrix type="matrix" values="0 0 0 0 0.4  0 0 0 0 0.4  0 0 0 0 0.4  0 0 0 0.34901960784313724 0  " in="shadowComposite" />
    </filter>
    <g id="widget37">
      <path d="M 0 85.3063098517644  C 0 85.3063098517644  0 15  0 15  C 0 6.715728752538098  6.715728752538098 0  15 0  C 15 0  251 0  251 0  C 259.2842712474619 0  266 6.715728752538098  266 15  C 266 15  266 85.3063098517644  266 85.3063098517644  C 266 93.5905810992263  259.2842712474619 100.3063098517644  251 100.3063098517644  C 251 100.3063098517644  64.29128205128205 100.3063098517644  64.29128205128205 100.3063098517644  C 64.29128205128205 100.3063098517644  54.755076923077 114.89037561764835  54.755076923077 114.89037561764835  C 54.755076923077 114.89037561764835  44.291282051282046 100.3063098517644  44.291282051282046 100.3063098517644  C 44.291282051282046 100.3063098517644  15 100.3063098517644  15 100.3063098517644  C 6.715728752538098 100.3063098517644  0 93.5905810992263  0 85.3063098517644  Z " fill-rule="nonzero" fill="#333333" stroke="none" />
    </g>
  </defs>
  <g transform="matrix(1 0 0 1 5 5 )">
    <use xlink:href="#widget37" filter="url(#filter36)" />
    <use xlink:href="#widget37" />
  </g>
</svg>