<?xml version="1.0" encoding="utf-8"?>
<svg version="1.1" xmlns:xlink="http://www.w3.org/1999/xlink" width="951px" height="45px" xmlns="http://www.w3.org/2000/svg">
  <g>
    <path d="M 15.992501434215018 0.5  C 15.992501434215018 0.5  14.229662983811005 0.5417075343155476  14.229662983811005 0.5417075343155476  C 14.229662983811005 0.5417075343155476  0.5090150481956888 22.5  0.5090150481956888 22.5  C 0.5090150481956888 22.5  14.229662983811005 44.45829246568446  14.229662983811005 44.45829246568446  C 14.229662983811005 44.45829246568446  15.992501434214912 44.5  15.992501434214912 44.5  C 15.992501434214912 44.5  950.5000000000001 44.5  950.5000000000001 44.5  C 950.5000000000001 44.5  950.5 0.4999999999999982  950.5 0.4999999999999982  C 950.5 0.4999999999999982  15.992501434215018 0.5  15.992501434215018 0.5  Z " fill-rule="nonzero" fill="#ffffff" stroke="none" />
    <path d="M 15.992501434215018 0.5  C 15.992501434215018 0.5  14.229662983811005 0.5417075343155476  14.229662983811005 0.5417075343155476  C 14.229662983811005 0.5417075343155476  0.5090150481956888 22.5  0.5090150481956888 22.5  C 0.5090150481956888 22.5  14.229662983811005 44.45829246568446  14.229662983811005 44.45829246568446  C 14.229662983811005 44.45829246568446  15.992501434214912 44.5  15.992501434214912 44.5  C 15.992501434214912 44.5  950.5000000000001 44.5  950.5000000000001 44.5  C 950.5000000000001 44.5  950.5 0.4999999999999982  950.5 0.4999999999999982  C 950.5 0.4999999999999982  15.992501434215018 0.5  15.992501434215018 0.5  Z " stroke-width="1" stroke="#e4e4e4" fill="none" />
  </g>
</svg>