<?xml version="1.0" encoding="utf-8"?>
<svg version="1.1" xmlns:xlink="http://www.w3.org/1999/xlink" width="5px" height="5px" xmlns="http://www.w3.org/2000/svg">
  <g transform="matrix(1 0 0 1 -388 -262 )">
    <path d="M 4.9039137226562275 1.7810024999999996  L 4.9039137226562275 3.3411846875000037  C 4.9039137226562275 3.580542421875009  4.817742601562486 3.8207795312500252  4.646281826171901 4.002856093749983  C 4.474821050781259 4.185812031250009  4.248585138671899 4.2772700390625005  4.024196078124987 4.2772700390625005  L 0.976643388671846 4.2772700390625005  C 0.7513309023437387 4.2772700390625005  0.5268998828124722 4.185812031250009  0.3545576406249893 4.002856093749983  C 0.1831388242187586 3.8207795312500252  0.09784916992185799 3.5805823828125085  0.09784916992185799 3.3411846875000037  L 0.09784916992185799 1.7810024999999996  C 0.09784916992185799 1.5416447656249943  0.1831388242187586 1.3014076562499781  0.3545576406249893 1.11933109375002  C 0.526899841796876 0.9363751562499942  0.7513309023437387 0.8449171484375029  0.976643388671846 0.8449171484375029  L 4.024196078124987 0.8449171484375029  C 4.249508564453151 0.8449171484375029  4.474821009765606 0.9363751562499942  4.646281826171901 1.11933109375002  C 4.817742601562486 1.3014076562499781  4.9039137226562275 1.5416048046874948  4.9039137226562275 1.7810024999999996  Z " fill-rule="nonzero" fill="#1abc9c" stroke="none" transform="matrix(1 0 0 1 388 262 )" />
  </g>
</svg>