<?xml version="1.0" encoding="utf-8"?>
<svg version="1.1" xmlns:xlink="http://www.w3.org/1999/xlink" width="5px" height="14px" xmlns="http://www.w3.org/2000/svg">
  <g transform="matrix(1 0 0 1 -388 -247 )">
    <path d="M 4.903913763671881 12.778436210937514  C 4.9039137226562275 12.939127265625018  4.817784560546897 13.10069773437499  4.645400400390599 13.22297480468751  C 4.4730581992187695 13.345211914062475  4.246864287109361 13.406770195312504  4.021551800781253 13.40589078124998  L 0.9918797089843565 13.39561773437498  C 0.7683720742187461 13.394778320312525  0.5448644394531357 13.333220039062496  0.3742851308593913 13.211822343749986  C 0.20374778125000148 13.08954523437501  0.11845808593750462 12.930573046874997  0.11753470117190545 12.770681445312505  L 0.09780725195315654 8.363749335937484  L 0.09780721093750344 1.4443207421875002  C 0.09780721093750344 1.284429140625008  0.1830968652343472 1.1245775390625  0.35451568164063474 1.0014610156250114  C 0.5259764570312768 0.8792239062499903  0.7512889433593841 0.818505078125014  0.9757199628906505 0.818505078125014  L 4.020628375000001 0.818505078125014  C 4.245059394531268 0.818505078125014  4.469448496093776 0.8792239062499903  4.640909271484361 1.0014610156250114  C 4.812370046875003 1.1237381249999885  4.8985411679687445 1.2844291796874927  4.8985411679687445 1.4443207421875002  L 4.8985411679687445 8.313343554687492  L 4.903913763671881 12.778436210937514  Z " fill-rule="nonzero" fill="#1abc9c" stroke="none" transform="matrix(1 0 0 1 388 247 )" />
  </g>
</svg>