<?xml version="1.0" encoding="utf-8"?>
<svg version="1.1" xmlns:xlink="http://www.w3.org/1999/xlink" width="36px" height="36px" xmlns="http://www.w3.org/2000/svg">
  <g transform="matrix(1 0 0 1 -372 -239 )">
    <path d="M 35.19048456818183 18.00003923437498  C 35.19048456818183 8.506167724431805  27.494201646306806 0.8102393693181682  17.999980363636382 0.8102393693181682  C 8.506583309659106 0.8102393693181682  0.8094761590909343 8.506206958806814  0.8094761590909343 18.00003923437498  C 0.8094761590909343 27.493871509943176  8.506583271306795 35.18983909943182  17.999980363636382 35.18983909943182  C 27.494201646306806 35.18983909943182  35.19048456818183 27.493832275568195  35.19048456818183 18.00003923437498  Z M 31.258843555397732 18.00003923437498  C 31.258843555397732 25.321638093749982  25.32274267755679 31.257495779829526  17.999980363636382 31.257495779829526  C 10.678081512784104 31.257495779829526  4.742804825284111 25.321638093749982  4.742804825284111 18.00003923437498  C 4.742804825284111 10.677576950284106  10.678081512784104 4.742582688920464  17.999980363636382 4.742582688920464  C 25.32274267755679 4.742582688920464  31.258843555397732 10.677616184659087  31.258843555397732 18.00003923437498  Z " fill-rule="nonzero" fill="#1abc9c" stroke="none" transform="matrix(1 0 0 1 372 239 )" />
  </g>
</svg>