<?xml version="1.0" encoding="utf-8"?>
<svg version="1.1" xmlns:xlink="http://www.w3.org/1999/xlink" width="55px" height="45px" xmlns="http://www.w3.org/2000/svg">
  <g transform="matrix(1 0 0 1 -450 -355 )">
    <path d="M 54.67767318976155 22.499937580645167  C 54.67767318976155 10.913460533959153  45.6284103346012 1.4648948508379362  34.21375959318459 0.7610944369014874  C 41.85107897576586 5.0062278714087824  47.025551467156674 13.14412663211948  47.025551467156674 22.499937580645167  C 47.025551467156674 31.85587330692414  41.85107897576586 39.99158891412549  34.21375959318459 44.23778268523188  C 45.630524928556724 43.53722588331652  54.67767318976155 34.08653940508441  54.67767318976155 22.499937580645167  Z M 22.14096482190581 44.3058985376764  C 34.192488997609985 44.30589847672002  43.96171742752881 34.54220392609625  43.96171742752881 22.499937641601548  C 43.96171742752881 10.45779607390375  34.192551173673905 0.6940391648815307  22.14096482190581 0.6940391648815307  C 10.091430827251259 0.6940391648815307  0.32226463417453033 10.457796134860132  0.32226463417453033 22.499937641601548  C 0.32226463417453033 34.54220392609625  10.091430888029379 44.3058985376764  22.14096482190581 44.3058985376764  Z M 31.137113455360804 26.322279306010614  C 31.68280955129524 26.363884792874273  32.10958939697264 26.572536055002498  32.42379689581617 26.948357870148698  C 32.73601415283201 27.32417968529489  32.91432629137546 27.773544057459677  32.95462841488484 28.296326208889866  C 32.91432629137546 28.83938093545237  32.73595191598997 29.292986897838944  32.42379689581617 29.658142257119437  C 32.10958939697264 30.02329755544355  31.682871727359153 30.225648790637592  31.137113455360804 30.268252316658277  L 25.11984095291939 30.23743806341355  L 25.11984095291939 33.558330549080154  C 25.036935462196766 35.33326988974295  24.06458393349095 36.22020936129661  22.204590019659747 36.22020936129661  C 21.28522836053145 36.22020936129661  20.569616447368446 36.0019520408581  20.057940869140623 35.563254124558966  C 19.5440262840512 35.12449384986138  19.26800631476152 34.456996935011375  19.22770419125203 33.558330549080154  L 19.22770419125203 30.30018938681326  L 13.176411171104007 30.30018938681326  C 12.613735965126466 30.2587086167465  12.178435446006347 30.023359974798385  11.87697786929482 29.595390933719784  C 11.573343461785555 29.16829515404487  11.390739898488903 28.692420538211937  11.327052585449223 28.17069878433722  C 11.39073995926708 27.648977030462447  11.573343522563732 27.220945630985398  11.87697786929482 26.886604585906014  C 12.178435446006347 26.55232589922508  12.613735965126466 26.36382243447582  13.176411171104007 26.322216947612162  L 19.22770419125203 26.322216947612162  L 19.22770419125203 24.348232403131306  L 13.176411171104007 24.317355730531744  C 12.613735965126466 24.274689846112665  12.178435446006347 24.076767398248478  11.87697786929482 23.722153778036787  C 11.573343461785555 23.36647976026967  11.390739898488903 22.91724016585812  11.327052585449223 22.374185439295616  C 11.39073995926708 21.85240132702245  11.573343522563732 21.424432285943794  11.87697786929482 21.09009124086441  C 12.178435446006347 20.75581255418348  12.613735965126466 20.568494264742924  13.176411171104007 20.525890677765915  L 17.690500625770994 20.525890677765915  L 13.490618669947594 13.133397817855325  C 13.280462844495275 12.883141068863438  13.082994765111039 12.563708069871494  12.894047359169406 12.178217838016621  C 12.707152371119435 11.79172956700478  12.62219446250515 11.369062574659779  12.643464997301578 10.909031746629296  C 12.747578907534944 10.323373494046109  12.957796909051183 9.84855927576865  13.269827577097033 9.483341619046143  C 13.584035075940562 9.118186320722032  14.170157708290503 8.882900037172362  15.025769817537025 8.778543165952613  C 15.526934480494447 8.820023936019425  15.976975163574195 8.993556874369972  16.373963740234387 9.296023268649208  C 16.771076729800598 9.598364885175158  17.09591949604237 9.927403881520945  17.34643968184622 10.281955143334187  L 22.11104926153888 18.991539730342765  L 27.34491770199429 10.220201859091503  C 27.595375650956044 9.865650658234642  27.920342830103777 9.551519768932735  28.317393643606128 9.279992405651456  C 28.714382220266202 9.007467003213208  29.164547316252083 8.841294550308703  29.665587566303426 8.778480807554217  C 29.979919478053034 8.798690963331637  30.266574714740955 8.84123213095387  30.527667931100954 8.90298541519661  C 30.786646553505303 8.966859555506574  31.018135150596205 9.071278724168337  31.21778006077818 9.218239121408772  C 31.415248140162362 9.3640143433405  31.58292501130757 9.572790322265632  31.718882547671683 9.844317685546912  C 31.854777907971762 10.114722231917881  31.952423562654186 10.470271532888091  32.01611087569381 10.910029785786321  C 32.01611087569381 11.515960552545378  31.80806970497531 12.089829532352551  31.38974829589847 12.632821900516662  L 26.531722310212785 20.52682635852443  L 31.13929028615848 20.52682635852443  C 31.682871727359153 20.56843184538809  32.11176622777032 20.756810593340447  32.42379689581617 21.091151638419888  C 32.73601415283201 21.42543032510082  32.91432629137546 21.85346172457787  32.9567430696186 22.375245836851036  C 32.914264115311425 22.919298602570564  32.73166055201477 23.378206613690793  32.40893237972864 23.754028428836932  C 32.08408961348687 24.128727427072818  31.65096586438631 24.337503466954384  31.10738442318564 24.380106992975072  L 25.11984095291939 24.410858887821348  L 25.11984095291939 26.322092108902496  L 31.137113455360804 26.32209216985888  Z " fill-rule="nonzero" fill="#1abc9c" stroke="none" transform="matrix(1 0 0 1 450 355 )" />
  </g>
</svg>