<?xml version="1.0" encoding="utf-8"?>
<svg version="1.1" xmlns:xlink="http://www.w3.org/1999/xlink" width="187px" height="52px" xmlns="http://www.w3.org/2000/svg">
  <defs>
    <filter x="987px" y="269px" width="187px" height="52px" filterUnits="userSpaceOnUse" id="filter31">
      <feOffset dx="0" dy="0" in="SourceAlpha" result="shadowOffsetInner" />
      <feGaussianBlur stdDeviation="1.5" in="shadowOffsetInner" result="shadowGaussian" />
      <feComposite in2="shadowGaussian" operator="atop" in="SourceAlpha" result="shadowComposite" />
      <feColorMatrix type="matrix" values="0 0 0 0 0.6  0 0 0 0 0.6  0 0 0 0 0.6  0 0 0 0.34901960784313724 0  " in="shadowComposite" />
    </filter>
    <g id="widget32">
      <path d="M 990 303.9037632223984  C 990 303.9037632223984  990 277  990 277  C 990 274.23857625084605  992.238576250846 272  995 272  C 995 272  1166 272  1166 272  C 1168.761423749154 272  1171 274.23857625084605  1171 277  C 1171 277  1171 303.9037632223984  1171 303.9037632223984  C 1171 306.66518697155243  1168.761423749154 308.9037632223984  1166 308.9037632223984  C 1166 308.9037632223984  1045.4571428571428 308.9037632223984  1045.4571428571428 308.9037632223984  C 1045.4571428571428 308.9037632223984  1035.9112554112555 317.9130434782609  1035.9112554112555 317.9130434782609  C 1035.9112554112555 317.9130434782609  1025.4571428571428 308.9037632223984  1025.4571428571428 308.9037632223984  C 1025.4571428571428 308.9037632223984  995 308.9037632223984  995 308.9037632223984  C 992.238576250846 308.9037632223984  990 306.66518697155243  990 303.9037632223984  Z " fill-rule="nonzero" fill="#333333" stroke="none" />
    </g>
  </defs>
  <g transform="matrix(1 0 0 1 -987 -269 )">
    <use xlink:href="#widget32" filter="url(#filter31)" />
    <use xlink:href="#widget32" />
  </g>
</svg>