<?xml version="1.0" encoding="utf-8"?>
<svg version="1.1" xmlns:xlink="http://www.w3.org/1999/xlink" width="87px" height="20px" xmlns="http://www.w3.org/2000/svg">
  <g transform="matrix(1 0 0 1 -673 -363 )">
    <path d="M 752.4712698428008 364  C 752.4712698428008 364  753.4672143297423 364.11447637780935  753.4672143297423 364.11447637780935  C 753.4672143297423 364.11447637780935  758.9239711894876 373  758.9239711894876 373  C 758.9239711894876 373  753.4672143297423 381.88552362219065  753.4672143297423 381.88552362219065  C 753.4672143297423 381.88552362219065  752.4712698428008 382  752.4712698428008 382  C 752.4712698428008 382  674 382  674 382  C 674 382  674 364  674 364  C 674 364  752.4712698428008 364  752.4712698428008 364  Z " fill-rule="nonzero" fill="#f4d2d2" stroke="none" />
    <path d="M 752.2356349214003 363.5  C 752.2356349214003 363.5  753.7336071648712 363.67218071764034  753.7336071648712 363.67218071764034  C 753.7336071648712 363.67218071764034  759.4619855947437 373  759.4619855947437 373  C 759.4619855947437 373  753.7336071648712 382.3278192823597  753.7336071648712 382.3278192823597  C 753.7336071648712 382.3278192823597  752.2356349214003 382.5  752.2356349214003 382.5  C 752.2356349214003 382.5  673.5 382.5  673.5 382.5  C 673.5 382.5  673.5 363.5  673.5 363.5  C 673.5 363.5  752.2356349214003 363.5  752.2356349214003 363.5  Z " stroke-width="1" stroke="#f04844" fill="none" stroke-opacity="0.4980392156862745" />
  </g>
</svg>