<?xml version="1.0" encoding="utf-8"?>
<svg version="1.1" xmlns:xlink="http://www.w3.org/1999/xlink" width="50px" height="54px" xmlns="http://www.w3.org/2000/svg">
  <g transform="matrix(1 0 0 1 -250 -276 )">
    <path d="M 27.250000017578124 9  L 27.250000017578124 5  L 43.58087597851563 5  C 46.98798910351562 4.499999994506835  49.749999982421876 7.2674019078937  49 10.66912399690695  L 49 47.83087599759988  C 49.749999982421876 51.237989121768074  46.98259812109375 54  43.58087597851563 54  L 6.41912396875 54  C 3.012010896484375 54  0.25000001757812473 51.23259808661313  1 47.83087599759988  L 1 20.250000008239745  L 5 20.250000008239745  L 5 47.491598691042086  C 4.75 48.578006233745604  5.649191916015625 49.50000001867676  6.758401275390626 49  L 43.241598724609375 49  C 44.328006267578125 49.50000001867676  45.25 48.60080820834941  45 47.491598691042086  L 45 11.008401303464744  C 45.25 9.921993813495604  44.350808189453126 9.00000002856445  43.241598724609375 9  L 27.250000017578124 9  Z M 0.9446724179687499 8.364870433016389  L 7.6540212812499995 15.057050458726305  C 8.5805321875 15.980983181156985  10.08229718359375 15.980983181156985  11.008808142578125 15.057050458726305  L 22.05532758203125 4.039013332510007  C 22.9815574140625 3.1148178874231403  22.9815574140625 1.616882303804472  22.05532758203125 0.6929495813737916  C 21.12881667578125 -0.23098319379126397  19.6270516796875 -0.23098319379126397  18.700540720703124 0.6929495813737916  L 9.331555169921876 10.03795485838917  L 4.299459279296875 5.018806681880174  C 3.3729483203125 4.094873959449494  1.8711833242187499 4.094873959449494  0.9446724179687499 5.018806681880174  C 0.018442533203125056 5.94300212696704  0.018442533203125056 7.440937710585708  0.9446724179687499 8.364870433016389  Z M 11.5210800390625 42.750000020324705  C 10.266797148437501 42.750000020324705  9.249999982421876 41.75130419244353  9.249999982421876 40.5000000032959  C 9.249999982421876 39.25735943914616  10.247544671875001 38.24999998626709  11.5210800390625 38.24999998626709  L 15.978919996093751 38.24999998626709  C 17.233202833984375 38.24999998626709  18.25 39.24869581414827  18.25 40.5000000032959  C 18.25 41.74264056744565  17.25245536328125 42.750000020324705  15.978919996093751 42.750000020324705  L 11.5210800390625 42.750000020324705  Z M 11.5210800390625 31.499999987915043  C 10.266797148437501 31.499999987915043  9.249999982421876 30.501304212768233  9.249999982421876 29.250000023620604  C 9.249999982421876 28.007359406736484  10.247544671875001 27.000000006591797  11.5210800390625 27.000000006591797  L 15.978919996093751 27.000000006591797  C 17.233202833984375 27.000000006591797  18.25 27.998695781738597  18.25 29.250000023620604  C 18.25 30.492640587770353  17.25245536328125 31.499999987915043  15.978919996093751 31.499999987915043  L 11.5210800390625 31.499999987915043  Z M 24.9933177109375 42  C 23.754367603515625 42.750000020324705  22.749999982421873 41.75130419244353  22.749999982421873 40.5000000032959  C 22.749999982421873 39.25735943914616  23.76933166796875 38.24999998626709  24.9933177109375 38  L 38.506682289062496 38  C 39.745632396484375 38.24999998626709  40.750000017578124 39.24869581414827  40.750000017578124 40.5000000032959  C 40.750000017578124 41.74264056744565  39.73066833203125 42.750000020324705  38.506682289062496 42  L 24.9933177109375 42  Z M 24.9933177109375 31  C 23.754367603515625 31.499999987915043  22.749999982421873 30.501304212768233  22.749999982421873 29.250000023620604  C 22.749999982421873 28.007359406736484  23.76933166796875 27.000000006591797  24.9933177109375 27  L 38.506682289062496 27  C 39.745632396484375 27.000000006591797  40.750000017578124 27.998695781738597  40.750000017578124 29.250000023620604  C 40.750000017578124 30.492640587770353  39.73066833203125 31.499999987915043  38.506682289062496 31  L 24.9933177109375 31  Z M 24.9933177109375 21  C 23.754367603515625 20.250000008239745  22.749999982421873 19.251304180358566  22.749999982421873 17.999999991210938  C 22.749999982421873 16.757359321592443  23.76933166796875 15.750000026916503  24.9933177109375 16  L 38.506682289062496 16  C 39.745632396484375 15.750000026916503  40.750000017578124 16.74869585479768  40.750000017578124 17.999999991210938  C 40.750000017578124 19.24264071356381  39.73066833203125 20.250000008239745  38.506682289062496 21  L 24.9933177109375 21  Z " fill-rule="nonzero" fill="#1abc9c" stroke="none" transform="matrix(1 0 0 1 250 276 )" />
  </g>
</svg>