<?xml version="1.0" encoding="utf-8"?>
<svg version="1.1" xmlns:xlink="http://www.w3.org/1999/xlink" width="40px" height="40px" xmlns="http://www.w3.org/2000/svg">
  <g transform="matrix(1 0 0 1 -370 -236 )">
    <path d="M 39.707843076171855 20.020326201171883  C 39.707843076171855 30.885769428710944  30.89827099121095 39.695206645507824  20.032962631835915 39.695206645507824  C 9.167609360351548 39.695206645507824  0.3580821874999742 30.885769428710944  0.3580821874999742 20.020326201171883  C 0.3580821874999742 9.154972929687489  9.167654316406242 0.34544575683594303  20.032962631835915 0.34544575683594303  C 30.898270947265644 0.34544575683594303  39.707843076171855 9.155017885742183  39.707843076171855 20.020326201171883  Z M 36.01881422363283 20.020326201171883  C 36.01881422363283 11.20598732421874  28.847301508789087 4.034609521484384  20.032962631835915 4.034609521484384  C 11.218623754882799 4.034609521484384  4.047111040039056 11.20598732421874  4.047111040039056 20.020326201171883  C 4.047111040039056 28.834665078125  11.218578798828105 36.00617779296874  20.032962631835915 36.00617779296874  C 28.847346464843724 36.00617779296874  36.01881422363283 28.834665078125  36.01881422363283 20.020326201171883  Z M 29.329959291992168 17.020634990234385  L 19.49251909179685 26.857985278320314  C 19.132358295898428 27.218280986328125  18.660403261718727 27.398428862304684  18.18844827148439 27.398428862304684  C 17.716493281249996 27.398428862304684  17.244538247070295 27.218280986328125  16.884377451171872 26.857985278320314  L 10.735966015625024 20.709573930664078  C 10.356468315429709 20.33021114257815  10.189496518554677 19.82826145507812  10.209912675781254 19.33220276855468  C 10.227990415039073 18.88547563964846  10.394872255859354 18.442525961914043  10.735966015625024 18.101522158203124  C 11.076969819335943 17.76029353027343  11.520009453124999 17.593411645507786  11.966736538085911 17.575333906250023  C 12.462795224609351 17.555052661132834  12.964744868164075 17.72188954589842  13.344107700195309 18.101522158203124  L 18.188448227539084 22.945592861328123  L 26.721817607421883 14.412358437500018  C 27.10118039550781 14.032860737304702  27.603264995117172 13.86588894042967  28.099188769531224 13.886305097656248  C 28.5459158984375 13.904517749023455  28.98900048828125 14.071264677734348  29.329959291992168 14.412358437500018  C 29.671053051757838 14.753362241210937  29.83793489257812 15.196536743164074  29.856012631835938 15.643128959960961  C 29.876428789062516 16.1391876464844  29.709456992187484 16.64113729003907  29.329959291992168 17.020634990234385  Z " fill-rule="nonzero" fill="#1abc9c" stroke="none" transform="matrix(1 0 0 1 370 236 )" />
  </g>
</svg>