<?xml version="1.0" encoding="utf-8"?>
<svg version="1.1" xmlns:xlink="http://www.w3.org/1999/xlink" width="100px" height="100px" xmlns="http://www.w3.org/2000/svg">
  <g transform="matrix(1 0 0 1 -719 -406 )">
    <path d="M 769 410  C 794.76 410  815 430.24  815 456  C 815 481.76  794.76 502  769 502  C 743.24 502  723 481.76  723 456  C 723 430.24  743.24 410  769 410  Z " fill-rule="nonzero" fill="#ffffff" stroke="none" fill-opacity="0" />
    <path d="M 769 408.5  C 795.6 408.5  816.5 429.4  816.5 456  C 816.5 482.6  795.6 503.5  769 503.5  C 742.4 503.5  721.5 482.6  721.5 456  C 721.5 429.4  742.4 408.5  769 408.5  Z " stroke-width="5" stroke="#1abc9c" fill="none" />
  </g>
</svg>