<?xml version="1.0" encoding="utf-8"?>
<svg version="1.1" xmlns:xlink="http://www.w3.org/1999/xlink" width="149px" height="40px" xmlns="http://www.w3.org/2000/svg">
  <g transform="matrix(1 0 0 1 -230 -150 )">
    <path d="M 230.5 178.89335664335664  C 230.5 178.89335664335664  230.5 150.5  230.5 150.5  C 230.5 150.5  378.5 150.5  378.5 150.5  C 378.5 150.5  378.5 178.89335664335664  378.5 178.89335664335664  C 378.5 178.89335664335664  375.831593673734 178.89335664335664  375.831593673734 178.89335664335664  C 375.831593673734 178.89335664335664  366.5996225140253 188.6194457398331  366.5996225140253 188.6194457398331  C 366.5996225140253 188.6194457398331  356.2443660140161 178.89335664335664  356.2443660140161 178.89335664335664  C 356.2443660140161 178.89335664335664  230.5 178.89335664335664  230.5 178.89335664335664  Z " fill-rule="nonzero" fill="#ffffff" stroke="none" />
    <path d="M 230 179.39335664335664  C 230 179.39335664335664  230 150  230 150  C 230 150  379 150  379 150  C 379 150  379 179.39335664335664  379 179.39335664335664  C 379 179.39335664335664  376.0463744684621 179.39335664335664  376.0463744684621 179.39335664335664  C 376.0463744684621 179.39335664335664  366.6198529411764 189.32440892440894  366.6198529411764 189.32440892440894  C 366.6198529411764 189.32440892440894  356.0463744684621 179.39335664335664  356.0463744684621 179.39335664335664  C 356.0463744684621 179.39335664335664  230 179.39335664335664  230 179.39335664335664  Z M 231 178.39335664335664  C 231 178.39335664335664  356.4423575595706 178.39335664335664  356.4423575595706 178.39335664335664  C 356.4423575595706 178.39335664335664  366.57939208687424 187.91448255525728  366.57939208687424 187.91448255525728  C 366.57939208687424 187.91448255525728  375.6168128790059 178.39335664335664  375.6168128790059 178.39335664335664  C 375.6168128790059 178.39335664335664  378 178.39335664335664  378 178.39335664335664  C 378 178.39335664335664  378 151  378 151  C 378 151  231 151  231 151  C 231 151  231 178.39335664335664  231 178.39335664335664  Z " fill-rule="nonzero" fill="#e4e4e4" stroke="none" />
  </g>
</svg>