<?xml version="1.0" encoding="utf-8"?>
<svg version="1.1" xmlns:xlink="http://www.w3.org/1999/xlink" width="300px" height="50px" xmlns="http://www.w3.org/2000/svg">
  <g transform="matrix(1 0 0 1 -225 -500 )">
    <path d="M 226 502  A 1 1 0 0 1 227 501 L 523 501  A 1 1 0 0 1 524 502 L 524 548  A 1 1 0 0 1 523 549 L 227 549  A 1 1 0 0 1 226 548 L 226 502  Z " fill-rule="nonzero" fill="#ffffff" stroke="none" />
    <path d="M 225.5 502  A 1.5 1.5 0 0 1 227 500.5 L 523 500.5  A 1.5 1.5 0 0 1 524.5 502 L 524.5 548  A 1.5 1.5 0 0 1 523 549.5 L 227 549.5  A 1.5 1.5 0 0 1 225.5 548 L 225.5 502  Z " stroke-width="1" stroke="#1abc9c" fill="none" stroke-opacity="0.8" />
  </g>
</svg>