<?xml version="1.0" encoding="utf-8"?>
<svg version="1.1" xmlns:xlink="http://www.w3.org/1999/xlink" width="14px" height="11px" xmlns="http://www.w3.org/2000/svg">
  <g transform="matrix(1 0 0 1 -10 -7 )">
    <path d="M 13.747096774193551 1.5185185185185226  C 13.915698924731181 1.691358024691354  14 1.9012345679012324  14 2.1481481481481506  C 14 2.395061728395058  13.915698924731181 2.6049382716049383  13.747096774193551 2.7777777777777786  L 7.207741935483873 9.481481481481477  L 5.979354838709675 10.74074074074074  C 5.810752688172045 10.913580246913586  5.60602150537634 11  5.36516129032259 11  C 5.124301075268818 11  4.919569892473113 10.913580246913586  4.750967741935483 10.74074074074074  L 3.5225806451612875 9.481481481481477  L 0.252903225806449 6.129629629629629  C 0.08430107526881692 5.956790123456786  0 5.746913580246908  0 5.5  C 0 5.2530864197530835  0.08430107526881692 5.043209876543214  0.252903225806449 4.870370370370372  L 1.4812903225806444 3.611111111111116  C 1.6498924731182747 3.4382716049382744  1.8546236559139793 3.3518518518518494  2.0954838709677492 3.3518518518518494  C 2.3363440860215015 3.3518518518518494  2.5410752688172042 3.4382716049382744  2.709677419354838 3.611111111111116  L 5.36516129032259 6.342592592592598  L 11.29032258064516 0.25925925925925775  C 11.458924731182798 0.0864197530864157  11.663655913978499 0  11.904516129032253 0  C 12.145376344086024 0  12.350107526881722 0.0864197530864157  12.518709677419356 0.25925925925925775  L 13.747096774193551 1.5185185185185226  Z " fill-rule="nonzero" fill="#ffffff" stroke="none" transform="matrix(1 0 0 1 10 7 )" />
  </g>
</svg>