<?xml version="1.0" encoding="utf-8"?>
<svg version="1.1" xmlns:xlink="http://www.w3.org/1999/xlink" width="11px" height="11px" xmlns="http://www.w3.org/2000/svg">
  <g transform="matrix(1 0 0 1 -32 -7 )">
    <path d="M 10.740740740740748 8.222222222222221  C 10.913580246913583 8.395061728395062  11 8.60493827160494  11 8.851851851851851  C 11 9.098765432098766  10.913580246913583 9.308641975308639  10.740740740740748 9.481481481481481  L 9.481481481481481 10.74074074074074  C 9.308641975308646 10.913580246913579  9.098765432098766 11  8.851851851851848 11  C 8.604938271604937 11  8.395061728395063 10.913580246913579  8.222222222222221 10.74074074074074  L 5.5 8.018518518518517  L 2.7777777777777786 10.74074074074074  C 2.6049382716049365 10.913580246913579  2.3950617283950635 11  2.1481481481481524 11  C 1.9012345679012341 11  1.691358024691361 10.913580246913579  1.518518518518519 10.74074074074074  L 0.2592592592592595 9.481481481481481  C 0.08641975308641747 9.308641975308639  0 9.098765432098766  0 8.851851851851851  C 0 8.60493827160494  0.08641975308641747 8.395061728395062  0.2592592592592595 8.222222222222221  L 2.981481481481481 5.5  L 0.2592592592592595 2.777777777777777  C 0.08641975308641747 2.6049382716049383  0 2.3950617283950617  0 2.148148148148149  C 0 1.901234567901236  0.08641975308641747 1.6913580246913575  0.2592592592592595 1.518518518518519  L 1.518518518518519 0.2592592592592595  C 1.691358024691361 0.08641975308641836  1.9012345679012341 0  2.1481481481481524 0  C 2.3950617283950635 0  2.6049382716049365 0.08641975308641836  2.7777777777777786 0.2592592592592595  L 5.5 2.981481481481481  L 8.222222222222221 0.2592592592592595  C 8.395061728395063 0.08641975308641836  8.604938271604937 0  8.851851851851848 0  C 9.098765432098766 0  9.308641975308646 0.08641975308641836  9.481481481481481 0.2592592592592595  L 10.740740740740748 1.518518518518519  C 10.913580246913583 1.6913580246913575  11 1.901234567901236  11 2.148148148148149  C 11 2.3950617283950617  10.913580246913583 2.6049382716049383  10.740740740740748 2.777777777777777  L 8.018518518518519 5.5  L 10.740740740740748 8.222222222222221  Z " fill-rule="nonzero" fill="#ffffff" stroke="none" transform="matrix(1 0 0 1 32 7 )" />
  </g>
</svg>