<?xml version="1.0" encoding="utf-8"?>
<svg version="1.1" xmlns:xlink="http://www.w3.org/1999/xlink" width="18px" height="18px" xmlns="http://www.w3.org/2000/svg">
  <g transform="matrix(1 0 0 1 -3 -3 )">
    <path d="M 12 3  C 17.04 3  21 6.959999999999999  21 12  C 21 17.04  17.04 21  12 21  C 6.959999999999999 21  3 17.04  3 12  C 3 6.959999999999999  6.959999999999999 3  12 3  Z " fill-rule="nonzero" fill="#ffffff" stroke="none" />
    <path d="M 12 3.5  C 16.759999999999998 3.5  20.5 7.239999999999999  20.5 12  C 20.5 16.759999999999998  16.759999999999998 20.5  12 20.5  C 7.239999999999999 20.5  3.5 16.759999999999998  3.5 12  C 3.5 7.239999999999999  7.239999999999999 3.5  12 3.5  Z " stroke-width="1" stroke="#ffffff" fill="none" />
  </g>
</svg>