<?xml version="1.0" encoding="utf-8"?>
<svg version="1.1" xmlns:xlink="http://www.w3.org/1999/xlink" width="47px" height="36px" xmlns="http://www.w3.org/2000/svg">
  <g transform="matrix(1 0 0 1 -367 -240 )">
    <path d="M 46 8.606609808102291  L 46.22688566098077 8.606609808102291  C 46.28733342217481 7.970469083155706  46.177951759061784 7.489765458422227  45.84404984008529 6.821961620469125  C 45.84404984008529 6.821961620469125  39.78488139658856 1.6752665245203104  37.31803704690839 0.27057569296374595  C 30.737866471215398 0.23027718550113718  15.136587153518235 0.28208955223888665  8.973793976545949 0.20724946695099788  C 6.780403784648286 1.419083155650327  3.104604211087406 4.303304904051231  0.4449027185499972 6.629104477611861  C 0.09948694029850459 6.934221748400859  0.004497601279240371 7.7114072494669585  0.06782382729198844 8.347547974413715  L 0 8.347547974413715  L 0 34.05223880597009  L 0.050553038379518966 34.05223880597009  L 0.050553038379518966 34.31705756929637  C 0.050553038379518966 35.09424307036244  0.6751799040512765 35.71599147121532  1.4466084754797066 35  L 44.81643789978688 35  C 44.81739837798938 35.715993453632905  44.818358857983924 35.71599444484235  44.8193193382325 35.71599444484235  C 45.59033946606132 35.71599444484235  46.21537477533269 35.090959135570984  46.21537477533269 34.319939007742164  C 46.21537477533269 34.31897852749398  46.215373784123244 34.31801804749858  46.21537180170583 34.31705756929637  L 46.21537180170583 34.05223880597009  L 46 34.05223880597009  L 46 8.606609808102291  Z M 3.303218283582168 8.102878464818673  C 3.087333422174936 8.108635394456314  2.9606809701491557 8.062579957356093  2.9290178571429237 8.062579957356093  C 2.920382462686689 8.062579957356093  2.917503997867925 8.068336886993563  2.917503997867925 8.071215351812327  C 2.9108568075022276 7.86398205157019  2.9491540520058384 7.65776611962761  3.029764125799659 7.466737739872116  C 3.029764125799659 7.466737739872116  8.090105277185444 3.4397654584221016  9.561000799573662 2.5013859275052823  C 17.70129930703638 2.4697228144989083  32.43616071428585 2.518656716417894  36.771128731343424 2.550319829424268  C 38.23626732409383 3.3706823027718826  43.460680970149156 7.5933901918975835  43.460680970149156 7.5933901918975835  C 43.52946119106201 7.735369784595065  43.50557575370203 7.904842649671451  43.400233208955115 8.022281449893342  C 43.270562244845166 8.085222680147467  43.12663832085923 8.11301488615851  42.98285581023441 8.102878464818673  L 3.303218283582168 8.102878464818673  Z M 17.37315431769707 17.52409381663108  L 17.37315431769707 26.179637526652414  C 17.373156236677005 26.18059797321729  17.373157196167824 26.18155842145984  17.373157196167824 26.182518869941703  C 17.373157196167824 26.978974713327773  16.72750216535337 27.62462974414217  15.93104632196736 27.62462974414217  C 15.93008587348595 27.62462974414217  15.929125425242205 27.62462878465152  15.928164978677898 27.624626865671587  L 7.266864339019264 27.624626865671587  C 6.470408495633251 27.624626865671587  5.824753464818798 26.978971834857305  5.824753464818798 26.18251599147112  C 5.824753464818798 25.386060148085107  6.470408495633251 24.740405117270825  7.266864339019264 24.740405117270825  L 14.483175639658723 24.740405117270825  L 14.483175639658723 17.52409381663108  C 14.483175639658723 16.72604824102274  15.1301194030695 16.079104477611907  15.928164978677898 16.079104477611907  C 16.726210554286297 16.079104477611907  17.37315431769707 16.72604824102274  17.37315431769707 17.52409381663108  Z M 43.51830052897975 27.202998765097846  C 43.51830052897975 27.912855011264412  42.96077798852434 28.4975674346083  42.251725746268676 28  L 28.62219482942419 28  C 27.912556610379625 28.498301099682408  27.35419759718218 27.91333882757465  27.35419759718218 27.202931769722852  C 27.35419759718218 26.492524711870942  27.912556610379625 25.90756243976324  28.62219482942419 25.87452025586356  L 42.24884728144997 25.87452025586356  C 42.959084610798016 25.906810246183625  43.51830052897975 26.49202780403516  43.51830052897975 27.202998765097846  Z M 42.251725746268676 23.701279317697242  C 42.251725746268676 23.701279317697242  42.251725746268676 23.701279317697242  42.251725746268676 23  L 24.73626732409383 23  C 24.73626732409383 23.701279317697242  24.73626732409383 23.701279317697242  24.73626732409383 23.701279317697242  C 24.001811037378445 23.701279317697242  23.406416577825155 23.10588485814384  23.406416577825155 22.371428571428567  C 23.406416577825155 21.636972284713295  24.001811037378445 21.041577825159834  24.73626732409383 21.041577825159834  C 24.73626732409383 21.041577825159834  24.73626732409383 21.041577825159834  24.73626732409383 21  L 42.251725746268676 21  C 42.251725746268676 21.041577825160005  42.251725746268676 21.041577825160005  42.251725746268676 21.041577825160005  C 42.986182032983834 21.041577825160005  43.58157649253741 21.636972284713295  43.58157649253741 22.371428571428567  C 43.58157649253741 23.10588485814384  42.986182032983834 23.701279317697242  42.251725746268676 23.701279317697242  Z M 42.251725746268676 18.86545842217481  L 33.81782382729199 18.86545842217481  C 33.81686330426976 18.865460503479085  33.815902779279156 18.865461544132017  33.814942254001835 18.865461544132017  C 33.0816086081478 18.865461544132017  32.48668019689467 18.271818072441988  32.48509461620483 17.538486140724956  C 32.48509461620483 16.807356076758992  33.08093683368878 16.211513859275044  33.81782382729199 16.211513859275044  L 42.251725746268676 16.211513859275044  C 42.98459230076173 16.211513859275044  43.578698027718644 16.8056195862319  43.578698027718644 17.538486140724956  C 43.578698027718644 18.2713526952179  42.98459230076173 18.86545842217481  42.251725746268676 18.86545842217481  Z " fill-rule="nonzero" fill="#1abc9c" stroke="none" transform="matrix(1 0 0 1 367 240 )" />
  </g>
</svg>