<?xml version="1.0" encoding="utf-8"?>
<svg version="1.1" xmlns:xlink="http://www.w3.org/1999/xlink" width="10px" height="14px" xmlns="http://www.w3.org/2000/svg">
  <g transform="matrix(1 0 0 1 0 -13 )">
    <path d="M 9.89443359375 5.325312499999999  C 9.894453125000002 5.882578125  9.894453125000002 6.439824218750001  9.894453125000002 6.997109374999999  C 9.894453125000002 8.8819921875  9.89599609375 10.766875  9.8917578125 12.6516796875  C 9.8913671875 12.82921875  9.88388671875 13.016328124999998  9.82892578125 13.1821484375  C 9.68943359375 13.603515625  9.38412109375 13.75732421875  8.98734375 13.563847656249997  C 8.637929687500002 13.393476562499998  8.305234375000001 13.17138671875  8.002324218750001 12.926328125  C 6.932578125000001 12.061152343749999  5.887597656250001 11.165273437499998  4.8115039062500005 10.308339843749998  C 4.601777343750001 10.141425781249998  4.29693359375 10.018886718749998  4.0316796875000005 10.010078125  C 3.0001757812500003 9.9759765625  1.9670117187500002 10.00044921875  0.9344335937500001 9.9941015625  C 0.34503906250000016 9.990488281250002  0.25021484375000025 9.896230468750002  0.24791015625000012 9.303964843749998  C 0.24205078125000012 7.76365234375  0.23984375000000013 6.22330078125  0.2464648437500001 4.68302734375  C 0.2490625000000002 4.068691406249999  0.35494140625000004 3.971230468749999  0.9678710937500001 3.9685937499999993  C 1.9512695312500004 3.9644140624999995  2.9356054687500004 3.9920312499999993  3.9174609374999996 3.952499999999999  C 4.21296875 3.940585937499999  4.552578125 3.814921874999999  4.784296875 3.630937499999999  C 5.96396484375 2.694374999999999  7.114140625000001 1.7206054687499996  8.2770703125 0.7628710937499994  C 8.4030078125 0.6591210937499992  8.532910156249999 0.5341210937499996  8.68201171875 0.4899804687499989  C 8.963007812499999 0.40687499999999943  9.33115234375 0.2472460937499994  9.52935546875 0.35826171874999924  C 9.733886718749998 0.472773437499999  9.871953125000001 0.869218749999999  9.878671874999998 1.1462499999999993  C 9.912773437499999 2.5385546874999996  9.89443359375 3.9321679687499995  9.89443359375 5.325312499999999  Z " fill-rule="nonzero" fill="#cccccc" stroke="none" transform="matrix(1 0 0 1 0 13 )" />
  </g>
</svg>