<?xml version="1.0" encoding="utf-8"?>
<svg version="1.1" xmlns:xlink="http://www.w3.org/1999/xlink" width="4px" height="12px" xmlns="http://www.w3.org/2000/svg">
  <g transform="matrix(1 0 0 1 -14 -14 )">
    <path d="M 3.2120312500000026 3.2190234375000006  C 3.5142773437500026 4.06966796875  3.59130859375 5.000351562500001  3.767695312499999 5.895800781250001  C 3.661249999999999 7.898730468750001  3.0204492187499987 9.675996093750001  1.8891992187500009 11.2819140625  C 1.7709570312499991 11.449726562499999  1.4973437499999989 11.561386718749999  1.2815624999999997 11.5894140625  C 1.1247656249999984 11.60982421875  0.8863281250000004 11.48931640625  0.7942968750000006 11.35580078125  C 0.7303320312500006 11.26263671875  0.8116796874999999 11.0145703125  0.8982421874999993 10.8812109375  C 1.5734375000000007 9.84052734375  2.0873242187499983 8.7365234375  2.3148046875000006 7.508261718749999  C 2.7176367187500006 5.333261718749998  2.307402343749999 3.311562499999999  1.1808593750000007 1.4226171874999993  C 1.1138085937500009 1.3101171874999995  1.0337890625000021 1.2049218749999993  0.9716210937500023 1.089921875  C 0.8408593750000009 0.8479687499999997  0.5385351562500027 0.6121679687499997  0.9084179687500011 0.3324609375000005  C 1.2147070312500006 0.10087890625000018  1.6779296875000007 0.16947265624999996  1.8852734375000004 0.5483203124999996  C 2.3625781250000024 1.4210351562500003  2.881328125000003 2.2885156249999996  3.2120312500000026 3.2190234375000006  Z " fill-rule="nonzero" fill="#cccccc" stroke="none" transform="matrix(1 0 0 1 14 14 )" />
  </g>
</svg>