<?xml version="1.0" encoding="utf-8"?>
<svg version="1.1" xmlns:xlink="http://www.w3.org/1999/xlink" width="47px" height="47px" xmlns="http://www.w3.org/2000/svg">
  <g transform="matrix(1 0 0 1 -523 -303 )">
    <path d="M 35.0551697879464 43.789099636160245  C 31.558055108258937 45.777543428571335  27.570861304687526 46.828610251116515  23.524675472098238 46.828610251116515  C 20.371528718750028 46.828610251116515  17.312157299107128 46.21083139285747  14.431640550223221 44.99250426450908  C 11.649837492187487 43.81588486272358  9.15172202790177 42.131687334821436  7.006699781250007 39.9866650881695  C 4.861677534598243 37.84158917968762  3.1774800066964417 35.343473767857176  2.000860604910713 32.5617243191964  C 0.7825334765624916 29.681207570312836  0.16475461830356153 26.621836150669882  0.16475461830356153 23.468689397321214  C 0.16475461830356153 20.31554264397346  0.7825334765624916 17.2561712243305  2.000860604910713 14.375654475446026  C 3.1774800066964417 11.593851417410406  4.861677534598243 9.095735953124858  7.006699781250007 6.950713706472925  C 9.15172202790177 4.805691459821901  11.649837439732153 3.1214939319197583  14.431640550223221 1.944874530134257  C 17.312157299107128 0.7265474017858651  20.371528718750028 0.1087685435268213  23.524675472098238 0.1087685435268213  C 26.677822225446448 0.1087685435268213  29.737193645089288 0.72649379241102  32.6177103939732 1.9448208683033956  C 35.39951345200893 3.1214402700888972  37.89762891629465 4.805637797991039  40.04265116294641 6.950660044642973  C 42.18772707142858 9.095682291294906  43.87192465178572 11.593797703124437  45.048544001116056 14.375600813616074  C 46.26687112946428 17.25611756250055  46.88464998772321 20.315488982142597  46.88464998772321 23.46863573549126  C 46.88464998772321 27.099301020089115  46.07432854799106 30.578809321428704  44.47623029910716 33.81048683258905  C 44.2528229330357 34.26223997433044  43.70546943080359 34.44737502008957  43.25382366517857 34.22396765401754  C 42.802070523437465 34.00061394977638  42.61693547767857 33.45331416183035  42.84034284375002 33.00156102008896  C 44.31299583705356 30.023565222098114  45.05965530468751 26.816257525670153  45.05965530468751 23.46863578794637  C 45.05965530468751 11.59428086941989  35.3991377142857 1.93370961718756  23.52472913392859 1.93370961718756  C 11.650374215401769 1.93370961718756  1.9898029631696659 11.594227207589029  1.9898029631696659 23.46863578794637  C 1.9898029631696659 35.34304436830371  11.650320553571419 45.00356195870518  23.52472913392859 45.00356195870518  C 27.25518160825891 45.00356195870518  30.930399535714287 44.03499807589287  34.15300546986606 42.20254219531216  C 34.59112441517857 41.953530477678214  35.14824725558037 42.10672713504482  35.397366349330355 42.54473875669646  C 35.64648544308034 42.982857702008914  35.49323507142856 43.539980542410376  35.0551697879464 43.789099636160245  Z " fill-rule="nonzero" fill="#ffffff" stroke="none" transform="matrix(1 0 0 1 523 303 )" />
  </g>
</svg>