<?xml version="1.0" encoding="utf-8"?>
<svg version="1.1" xmlns:xlink="http://www.w3.org/1999/xlink" width="30px" height="22px" xmlns="http://www.w3.org/2000/svg">
  <g transform="matrix(1 0 0 1 -532 -315 )">
    <path d="M 28.619139397815275 8.579042768787076  C 28.29286502696351 8.114110356213132  27.93034974764936 7.649230324590462  27.56783446833515 7.184245582217045  C 27.56783446833515 7.14849363839312  27.531593559872817 7.14849363839312  27.531593559872817 7.112741694568285  L 27.169078280558608 6.683561225818266  C 26.697787178512158 6.1470725957960894  26.226549173810838 5.646440569196783  25.827739940542017 5.25301209542431  C 24.885157788301967 4.394703538876456  24.450107594717906 4.251643382626753  24.123833223866143 4.251643382626753  L 19.12099503940817 4.251643382626753  C 18.975978308213485 4.251643382626753  18.830961577018797 4.251643382626753  18.722185806139407 4.287395326450678  L 18.722185806139407 2.105845903088266  C 18.722185806139407 1.0329733026410395  17.85213851631636 0.21041674107164002  16.80083363868914 0.21041674107164002  L 2.1184873651825455 0.2461686848955651  C 1.0308884817478088 0.2461686848955651  0.19708210038714924 1.1044772414434192  0.19708210038714924 2.141597846912191  L 0.19708215224005698 17.198089546131087  C 0.19708215224005698 18.270962146577403  1.0671294420630488 19.093518708146803  2.1184874170353964 19.093518708146803  L 4.366167052682499 19.093518708146803  C 4.7286823319966516 20.774383826264966  6.251278311670376 21.99036891276046  7.991425936808639 21.99036891276046  C 9.731520464601772 21.99036891276046  11.25416954162057 20.77443615606353  11.616684820934722 19.093518708146803  L 16.80083369054205 19.093518708146803  C 17.23588388412611 19.093518708146803  17.634640071902652 18.9504585518971  17.960914390901564 18.70009023437524  C 18.287188761753328 18.950406222098536  18.722238903484538 19.093518708146803  19.12099509126108 19.093518708146803  L 19.59228619330753 19.093518708146803  C 19.954801472621682 20.774383826264966  21.47739745229535 21.99036891276046  23.217545077433613 21.99036891276046  C 24.957639605226746 21.99036891276046  26.480288682245543 20.77443615606353  26.842803961559753 19.093518708146803  L 27.93034979950221 19.093518708146803  C 29.017895637444667 19.093518708146803  29.85170196695242 18.23521015159986  29.85170196695242 17.198089546131087  L 29.85170196695242 11.118268824404367  C 29.85170196695242 10.832148511904961  29.77922015002764 10.438720038132487  29.235394185564132 9.508907593935874  C 29.054189591399336 9.222787281436467  28.83669104327987 8.900915025111317  28.619139397815275 8.579042768787076  Z M 7.955184976493342 20.488315945870454  C 6.758863315818587 20.488315945870454  5.779987209623869 19.522699228050442  5.779987209623869 18.342466085379783  C 5.779987209623869 17.162285272507688  6.7588102703263075 16.196668554687676  7.955184976493342 16.196668554687676  C 9.151506637168154 16.196668554687676  10.130329697870593 17.162285272507688  10.130329697870593 18.342466085379783  C 10.130329697870593 19.522699176896822  9.151453539823024 20.488315945870454  7.955184976493342 20.488315945870454  Z M 17.163348918003294 6.218681194196506  L 17 6.218681194196506  L 17 17.198089546131087  C 17.16329587251107 17.41265359002955  16.982038232853995 17.591465690104087  16.76448663924225 17.591465690104087  L 11.580390815127203 17.591465690104087  C 11.21787553581305 15.946352515810757  9.80405532701883 14.766119373140102  8.063907753733417 14.69461548549134  L 7.91889102253873 14.69461548549134  C 6.215037403207987 14.730419759114739  4.7649232404590975 15.946352515810757  4.402407961144888 17.591465690104087  L 2.1184874170353964 17.591465690104087  C 1.900988868915931 17.591465690104087  1.719731229258855 17.41265359002955  2 17.198089546131087  L 2 2.141597846912191  C 1.7197311774059472 1.9270338030137284  1.9009888170630802 1.7481693731397172  2.1184873651825455 2  L 16.764539632881622 2  C 16.982038181001087 1.7481693731397172  17.163348866150443 1.926981473214255  17.163348866150443 2.141597846912191  L 17.163348918003294 6.218681194196506  Z M 23.217545077433613 20.488315945870454  C 22.021223416758858 20.488315945870454  21.04234731056414 19.522699228050442  21.04234731056414 18.342466085379783  C 21.04234731056414 17.162285272507688  22.021170371266578 16.196668554687676  23.217545077433613 16.196668554687676  C 24.413866738108425 16.196668554687676  25.392689798810864 17.162285272507688  25.392689798810864 18.342466085379783  C 25.392689798810864 19.522699176896822  24.413866686255517 20.488315945870454  23.217545077433613 20.488315945870454  Z M 28.292918124308642 17.198089546131087  C 28.292918124308642 17.41265359002955  28.111660484651566 17.591465690104087  27.8941619365321 17.591465690104087  L 26.806509955752233 17.591465690104087  C 26.480235584900413 16.01785640345952  25.102656336421433 14.837675641741043  23.471284534015467 14.69461548549134  C 23.471284534015467 14.69461548549134  23.471284534015467 14.69461548549134  23.435043625553078 14.69461548549134  C 23.435043625553078 14.69461548549134  23.435043625553078 14.69461548549134  23.39880271709069 14.69461548549134  L 23.3625618086283 14.69461548549134  L 23.145010215016555 14.69461548549134  L 23.108769306554223 14.69461548549134  L 23.072528398091777 14.69461548549134  L 23.036287489629387 14.69461548549134  L 23.000046581167 14.69461548549134  C 21.368674778761033 14.837675641741043  20.02728334139931 16.017908784411702  19.70106206789268 17.555713746279253  L 19.229770965846228 17.555713746279253  C 19.012272417726763 17.555713746279253  18.831014778069687 17.376953976004188  18.831014778069687 17.162337602306252  L 18.831014778069687 6.182876920573108  C 18.831014778069687 5.968312876673735  19.012219372234483 5.789448446800634  19.229770965846228 5.789448446800634  L 24.123886373064124 5.789448446800634  C 24.196421287334033 5.825252720424032  24.450160743915887 5.968260546875172  24.993986708379396 6.468997233072514  C 25.030227616841785 6.504749176897349  25.066468525304174 6.540501120721274  25.102709433766563 6.5762530645461075  L 22.746253975387162 6.5762530645461075  C 21.658655091952426 6.5762530645461075  20.824848710591823 7.434613950892526  20.824848710591823 8.471734607514918  L 20.824848710591823 10.796344238281563  C 20.824848710591823 11.86921683872788  21.694949045907094 12.691773400297281  22.746253975387162 12.691773400297281  L 28.4378817581582 12.691773400297281  L 28.292918124308642 17.198089546131087  Z M 28.292918124308642 11.225524655877962  L 22.637478152654865 11.225524655877962  C 22.4199796045354 11.225524655877962  22.238668919386043 11.046712555803424  22.238668919386043 10.832148511904961  L 22.238668919386043 8.507538881138316  C 22.238668919386043 8.292974837239854  22.41992655904312 8.114110407365843  22.637478152654865 8.114110407365843  L 26.371512859513246 8.114110407365843  C 26.55277049917038 8.328674451264305  26.734028138827455 8.579042819940696  26.915338823976754 8.793606863839159  C 27.205372286366128 9.18698300781216  27.49540569690265 9.580411481584633  27.712904245022116 9.938035681733709  L 27.821626970409284 9.866531794084949  L 27.712904245022116 9.938035681733709  L 27.93040279314158 9.794975525484006  L 27.712904245022116 9.938035681733709  L 27.821626970409284 10.116847781808247  C 28.256677163993345 10.832096182105488  28.329158980918123 11.082464499628259  28.329158980918123 11.118216494605804  L 28.292918124308642 11.225524655877962  Z " fill-rule="nonzero" fill="#ffffff" stroke="none" transform="matrix(1 0 0 1 532 315 )" />
  </g>
</svg>