<?xml version="1.0" encoding="utf-8"?>
<svg version="1.1" xmlns:xlink="http://www.w3.org/1999/xlink" width="50px" height="50px" xmlns="http://www.w3.org/2000/svg">
  <g transform="matrix(1 0 0 1 -852 -300 )">
    <path d="M 49.83163841807914 25.019886363636374  C 49.83163841807914 38.734659090909076  38.71327683615823 49.89232954545457  25.047175141242974 49.89232954545457  C 11.380790960452032 49.89232954545457  0.2627118644068105 38.6991477272727  0.2627118644068105 24.940624999999955  C 0.2627118644068105 11.247727272727275  11.381073446327719 0.10767045454542767  25.047175141242974 0.10767045454542767  C 30.095197740113004 0.10767045454542767  34.30169491525419 1.3417613636363512  37.907627118644086 3.88068181818187  C 38.38276836158195 4.215340909090855  38.498305084745766 4.873579545454504  38.16525423728808 5.351420454545405  C 37.8324858757062 5.830113636363649  37.17740112994352 5.945170454545405  36.703107344632826 5.610795454545496  C 33.46214689265537 3.3289772727272293  29.649435028248604 2.2198863636363058  25.047175141242974 2.2198863636363058  C 12.538983050847492 2.2198863636363058  2.36299435028252 12.412215909090946  2.36299435028252 24.940624999999955  C 2.36299435028252 37.534659090909145  12.538983050847492 47.780113636363694  25.047175141242974 47.780113636363694  C 37.55564971751414 47.780113636363694  47.73135593220343 37.570170454545405  47.73135593220343 25.019886363636374  C 47.73135593220343 19.490340909090946  45.81638418079092 14.207954545454527  42.47740112994347 10.526988636363626  C 42.087005649717526 10.096306818181802  42.11723163841805 9.4284090909091  42.54548022598874 9.035227272727298  C 42.97429378531069 8.642045454545496  43.63841807909603 8.672443181818153  44.02937853107346 9.10369318181813  C 47.716949152542384 13.16903409090912  49.83163841807914 18.970170454545496  49.83163841807914 25.019886363636374  Z " fill-rule="nonzero" fill="#ffffff" stroke="none" transform="matrix(1 0 0 1 852 300 )" />
  </g>
</svg>