<?xml version="1.0" encoding="utf-8"?>
<svg version="1.1" xmlns:xlink="http://www.w3.org/1999/xlink" width="24px" height="24px" xmlns="http://www.w3.org/2000/svg">
  <g transform="matrix(1 0 0 1 -865 -313 )">
    <path d="M 2 21.42014508928571  C 1.8923161764705583 21.893694196428555  1.513180147058847 22.276450892857156  1.0460845588235088 22.276450892857156  C 0.5789338235293826 22.276450892857156  0.19985294117645935 21.893694196428555  0.19985294117645935 21.42008928571431  L 0.19985294117645935 9.431529017857201  C 0.19985294117645935 8.958816964285688  0.5789889705882842 8.575223214285757  1.0460845588235088 8.575223214285757  C 1.513180147058847 8.575223214285757  1.8923161764705583 8.958872767857088  2 9.431529017857201  L 2 21.42014508928571  Z M 23.893180147058843 11.165624999999977  C 23.89323529411763 9.73465401785711  22.509650735294144 8.575223214285757  21.364632352941157 8.575223214285757  L 16.356452205882306 8.575223214285757  C 16.721194852941153 7.718917410714312  17.139264705882397 5.505245535714266  16.894687500000032 3.4920200892856883  C 16.700900735294113 1.8855468750000455  15.774264705882388 0.6532924107142435  14.415992647058829 0.18828125000004547  C 13.408952205882315 -0.15680803571433444  12.34775735294113 0.01099330357146755  11.775661764705887 0.6018973214286234  C 11.093602941176414 1.3058035714285552  10.773694852941162 2.6330915178571104  10.43520220588232 4.036662946428578  C 10.213455882352946 4.955524553571422  9.984154411764735 5.906919642857133  9.698933823529387 6.395870535714266  C 8.876360294117603 7.811383928571445  7.153400735294099 8.4570870535714  6.806415441176455 8.575223214285757  L 4.430955882352919 8.575223214285757  C 3.9638051470587925 8.575223214285757  3.5847242647058692 8.958872767857088  4 9.431529017857088  L 4 21.42014508928571  C 3.5847242647058692 21.893694196428555  3.963860294117694 22.276506696428555  4.430955882352919 22.276506696428555  L 6.720937499999991 22.276506696428555  C 7.428419117647081 22.664397321428623  10.063676470588234 23.989174107142844  13.114411764705892 23.989174107142844  L 18.824944852941144 23.989174107142844  C 19.765147058823572 23.989174107142844  21.38487132352941 23.62092633928569  21.990772058823495 22.6053571428572  C 22.602628676470545 21.576060267857088  23.893180147058843 12.204352678571468  23.893180147058843 11.165624999999977  Z M 22.199889705882356 11.163895089285688  C 22.20077205882353 12.306249999999977  20.894117647058806 20.911439732142867  20.54040441176471 21.72243303571429  C 20.41345588235299 21.936495535714243  19.575661764705842 22.276506696428555  18.825055147058833 22.276506696428555  L 13.114522058823582 22.276506696428555  C 10.090808823529414 22.276506696428555  7.424283088235256 20.563839285714266  7.398033088235252 20.563839285714266  C 7.270257352941144 20.563839285714266  7.129797794117621 20.563839285714266  6.97069852941172 20.563839285714266  L 5.277352941176446 20.563839285714266  L 5.277352941176446 10.287834821428532  L 6.969871323529446 10.287834821428532  C 7.039246323529369 10.287834821428532  7.101066176470567 10.263839285714312  7.165367647058815 10.247600446428578  C 7.178878676470617 10.2441964285714  7.19161764705882 10.248437500000023  7.205128676470622 10.2441964285714  C 7.2110294117646845 10.24246651785711  7.2279595588235 10.237332589285757  7.2499632352941035 10.23046875  C 7.271966911764707 10.222767857142912  7.295680147058874 10.21847098214289  7.316801470588189 10.208203124999955  C 7.831323529411748 10.036104910714243  10.02821691176473 9.208872767857201  11.157132352941176 7.264118303571422  C 11.56759191176468 6.5576450892857565  11.816360294117658 5.5300223214285325  12.078694852941226 4.443359375  C 12.323272058823477 3.4303013392857338  12.627077205882301 2.1706473214285325  12.98079044117651 1.8050223214286234  C 13.062022058823572 1.734821428571422  13.457205882352923 1.6457589285714675  13.95397058823528 1.8435825892856883  C 14.359301470588207 2.005412946428578  15.063419117647072 2.4627232142856883  15.214025735294172 3.7078125000000455  C 15.547444852941226 6.450669642857179  14.383841911764762 9.0624441964286  14.371985294117621 9.089006696428555  C 14.250992647058865 9.354464285714243  14.272996323529469 9.655022321428532  14.428676470588243 9.900781250000023  C 14.584356617647018 10.145703124999955  14.851819852941162 10.286997767857201  15.140404411764735 10.286997767857201  L 21.36380514705877 10.286997767857201  C 21.593106617647095 10.286997767857201  22.199889705882356 10.689453125  22.199889705882356 11.163895089285688  Z " fill-rule="nonzero" fill="#ffffff" stroke="none" transform="matrix(1 0 0 1 865 313 )" />
  </g>
</svg>