<?xml version="1.0" encoding="utf-8"?>
<svg version="1.1" xmlns:xlink="http://www.w3.org/1999/xlink" width="50px" height="50px" xmlns="http://www.w3.org/2000/svg">
  <g transform="matrix(1 0 0 1 -164 -303 )">
    <path d="M 12.193835595703149 19.52054794921878  L 21.864383544921907 14.618493164062556  L 24.9609588867188 18.515068505859404  L 15.460273974609324 23.291095898437447  L 12.193835595703149 19.52054794921878  Z M 23.4479452148438 33.24863012695312  L 24.879452050781197 29.56095888671871  L 24.879452050781197 38.10890410156253  L 14.858904101562532 33.51986303710942  L 14.89109589843747 28.973972607421842  L 23.4479452148438 33.24863012695312  Z M 13.756164404296896 27.791095898437447  L 15.453424658203174 23.306849316406215  L 24.953424658203176 27.791095898437447  L 23.257534228515624 32.525342480468794  L 13.756164404296896 27.791095898437447  Z M 50 25  C 50 31.678082177734378  47.39931508789061 37.95547944335942  42.67739726562502 42.67739726562502  C 37.95616440429683 47.39931508789061  31.677397265625018 50  25 50  C 18.32191782226562 50  12.043835595703172 47.39931508789061  7.322602734374982 42.67739726562502  C 2.6006849121093865 37.95547944335942  0 31.678082177734378  0 25  C 0 18.32191782226562  2.6006849121093865 12.044520556640578  7.322602734374982 7.322602734374982  C 12.043835595703172 2.6006849121093865  18.32191782226562 0  25 0  C 27.22534248046873 0  29.432876708984395 0.2924657714843306  31.56095888671871 0.8698630371093259  C 31.996405291985297 0.9879508133334411  32.29871899860893 1.3831676334916665  32.29871899860893 1.8343419842177582  C 32.29871899860893 1.9229188634711818  32.28694236517674 2.011102583305842  32.26369863281252 2.0965753417968926  C 32.14614832528105 2.532365082156389  31.750894674628398 2.83512956434447  31.299529221139437 2.83512956434447  C 31.21084326235723 2.83512956434447  31.122552465290827 2.8233158122214945  31.03698627929691 2.7999999999999545  C 29.068849125286423 2.2677403636855615  27.038838533571607 1.9987305633915184  25 2  C 12.317808203124969 2  2 12.317808203124969  2 25  C 2 37.68219179687503  12.317808203124969 48  25 48  C 37.68219179687503 48  48 37.68219179687503  48 25  C 48 20.15068491210934  46.50958906250003 15.514383544921884  43.68904111328129 11.590410937499996  C 43.55689217466522 11.416443690331903  43.48534919471376 11.20398693814468  43.48534919471376 10.985519675003047  C 43.48534919471376 10.4332349251722  43.93306444488303 9.985519675003047  44.48534919471376 9.985519675003047  C 44.81648732721487 9.985519675003047  45.12615231197856 10.149443226524681  45.31232875976559 10.423287695312524  C 48.37945205078131 14.689041113281293  50 19.72945205078122  50 25  Z M 25.12397260742182 18.515068505859404  L 28.34726025390626 14.618493164062556  L 37.80616440429685 19.604109570312517  L 34.71027397460932 23.291095898437447  L 25.12397260742182 18.515068505859404  Z M 35.218493164062465 29.005479443359377  L 35.218493164062465 33.51986303710942  L 25.230136962890583 38.10890410156253  L 25.230136962890583 29.56095888671871  L 26.55684931640622 33.257534228515624  L 35.218493164062465 29.005479443359377  Z M 25.166438378906264 27.791095898437447  L 34.71027397460932 23.306849316406215  L 36.61917807617192 27.747945214843757  L 26.7780821777344 32.48424658203123  L 25.166438378906264 27.791095898437447  Z " fill-rule="nonzero" fill="#ffffff" stroke="none" transform="matrix(1 0 0 1 164 303 )" />
  </g>
</svg>