<?xml version="1.0" encoding="utf-8"?>
<svg version="1.1" xmlns:xlink="http://www.w3.org/1999/xlink" width="116px" height="20px" xmlns="http://www.w3.org/2000/svg">
  <g transform="matrix(1 0 0 1 -59 -178 )">
    <path d="M 60 188  A 9 9 0 0 1 69 179 L 165 179  A 9 9 0 0 1 174 188 A 9 9 0 0 1 165 197 L 69 197  A 9 9 0 0 1 60 188 Z " fill-rule="nonzero" fill="#ffffff" stroke="none" />
    <path d="M 59.5 188  A 9.5 9.5 0 0 1 69 178.5 L 165 178.5  A 9.5 9.5 0 0 1 174.5 188 A 9.5 9.5 0 0 1 165 197.5 L 69 197.5  A 9.5 9.5 0 0 1 59.5 188 Z " stroke-width="1" stroke="#f04844" fill="none" stroke-opacity="0.4980392156862745" />
  </g>
</svg>