<?xml version="1.0" encoding="utf-8"?>
<svg version="1.1" xmlns:xlink="http://www.w3.org/1999/xlink" width="48px" height="48px" xmlns="http://www.w3.org/2000/svg">
  <g transform="matrix(1 0 0 1 -940 -361 )">
    <path d="M 964 362  C 976.88 362  987 372.12  987 385  C 987 397.88  976.88 408  964 408  C 951.12 408  941 397.88  941 385  C 941 372.12  951.12 362  964 362  Z " fill-rule="nonzero" fill="#ffffff" stroke="none" />
    <path d="M 964 362  C 976.88 362  987 372.12  987 385  C 987 397.88  976.88 408  964 408  C 951.12 408  941 397.88  941 385  C 941 372.12  951.12 362  964 362  Z " stroke-width="2" stroke="#e4e4e4" fill="none" />
  </g>
</svg>