<?xml version="1.0" encoding="utf-8"?>
<svg version="1.1" xmlns:xlink="http://www.w3.org/1999/xlink" width="16px" height="16px" xmlns="http://www.w3.org/2000/svg">
  <g transform="matrix(1 0 0 1 -1214 0 )">
    <path d="M 15.622895622895612 11.959595959595932  C 15.874298540965356 12.210998877665588  16 12.516273849607204  16 12.875420875420875  C 16 13.234567901234552  15.874298540965356 13.539842873176166  15.622895622895612 13.791245791245817  L 13.791245791245728 15.622895622895612  C 13.539842873176212 15.874298540965174  13.23456790123464 16  12.875420875420787 16  C 12.51627384960716 16  12.210998877665588 15.874298540965174  11.959595959595845 15.622895622895612  L 8 11.66329966329968  L 4.040404040404155 15.622895622895612  C 3.7890011223344118 15.874298540965174  3.4837261503928403 16  3.1245791245792134 16  C 2.765432098765359 16  2.4601571268237876 15.874298540965174  2.2087542087542715 15.622895622895612  L 0.3771043771043878 13.791245791245817  C 0.12570145903487173 13.539842873176166  0 13.234567901234552  0 12.875420875420875  C 0 12.516273849607204  0.12570145903487173 12.210998877665588  0.3771043771043878 11.959595959595932  L 4.33670033670046 8  L 0.3771043771043878 4.040404040404064  C 0.12570145903487173 3.7890011223344118  0 3.4837261503927968  0 3.1245791245791215  C 0 2.765432098765451  0.12570145903487173 2.460157126823831  0.3771043771043878 2.2087542087541796  L 2.2087542087542715 0.3771043771043878  C 2.4601571268237876 0.12570145903482363  2.765432098765359 0  3.1245791245792134 0  C 3.4837261503928403 0  3.7890011223344118 0.12570145903482363  4.040404040404155 0.3771043771043878  L 8 4.336700336700324  L 11.959595959595845 0.3771043771043878  C 12.210998877665588 0.12570145903482363  12.51627384960716 0  12.875420875420787 0  C 13.23456790123464 0  13.539842873176212 0.12570145903482363  13.791245791245728 0.3771043771043878  L 15.622895622895612 2.2087542087541796  C 15.874298540965356 2.460157126823831  16 2.765432098765451  16 3.1245791245791215  C 16 3.4837261503927968  15.874298540965356 3.7890011223344118  15.622895622895612 4.040404040404064  L 11.66329966329954 8  L 15.622895622895612 11.959595959595932  Z " fill-rule="nonzero" fill="#1abc9c" stroke="none" transform="matrix(1 0 0 1 1214 0 )" />
  </g>
</svg>